# xmcd
#
# Track frame offsets: 
#        150
#        15430
#        42108
#        209693
#        233895
#        289418
#
# Disc length: 4292 seconds
#
# Revision: 3
# Processed by: cddbd v1.5.2PL0 Copyright (c) Steve Scherf et al.
# Submitted via: ExactAudioCopyFreeDBPlugin 1.0
#
DISCID=5110c206
DTITLE=Wynton Marsalis - Blue Interlude
DYEAR=1992
DGENRE=Jazz
TTITLE0=Brother Veal
TTITLE1=Monologue for Sugar Cane and Sweetie Pie
TTITLE2=Blue interlude (The bittersweet saga of  Sugar Cane and Sweeti
TTITLE2=e Pie)
TTITLE3=And the Band Played On
TTITLE4=The jubilee suite =Day to Day - Running and Rambling - Grace
TTITLE5=Sometimes It Goes Like That
EXTD=
EXTT0=
EXTT1=
EXTT2=
EXTT3=
EXTT4=
EXTT5=
PLAYORDER=
